<svg width="116" height="92" viewBox="0 0 116 92" fill="none" xmlns="http://www.w3.org/2000/svg">
<g clip-path="url(#clip0_1320_3690)">
<path fill-rule="evenodd" clip-rule="evenodd" d="M101.325 0.412231C93.3276 0.412231 86.8145 6.88356 86.8145 14.9212C86.8145 22.9176 93.2864 29.4302 101.325 29.4302C103.674 29.4302 105.9 28.8531 107.879 27.8638L94.9353 14.9212L107.879 1.97854C105.9 0.989292 103.674 0.412231 101.325 0.412231ZM111.795 24.9373L101.778 14.9212L111.795 4.90506C114.31 7.50184 115.835 11.0466 115.835 14.9212C115.835 18.7957 114.269 22.3405 111.795 24.9373Z" fill="#D22730"/>
<path fill-rule="evenodd" clip-rule="evenodd" d="M57.9183 0C52.2708 0 47.3654 3.21505 44.9744 7.9552H70.8622C68.43 3.21505 63.5658 0 57.9183 0ZM43.5317 12.7778C43.4492 13.3548 43.4492 13.9319 43.4492 14.509C43.4492 19.2491 45.7165 23.4534 49.2616 26.0914L56.8877 12.7778H43.5317ZM53.5075 28.3172L62.4528 12.7778H72.3049C72.3874 13.3548 72.3874 13.9319 72.3874 14.509C72.3874 22.5054 65.9155 29.0179 57.8771 29.0179C56.3518 28.9767 54.8678 28.7294 53.5075 28.3172Z" fill="#D22730"/>
<path fill-rule="evenodd" clip-rule="evenodd" d="M14.5103 0C8.86283 0 3.95736 3.21505 1.56645 7.9552H27.4542C25.022 3.21505 20.1578 0 14.5103 0ZM0.0824449 12.7778C0.0412225 13.3548 0 13.9319 0 14.509C0 19.2491 2.26724 23.4534 5.81237 26.0914L13.4797 12.7778H0.0824449ZM10.0995 28.3172L19.0448 12.7778H28.8969C28.9794 13.3548 28.9794 13.9319 28.9794 14.509C28.9794 22.5054 22.5075 29.0179 14.4691 29.0179C12.9439 28.9767 11.4598 28.7294 10.0995 28.3172Z" fill="#D22730"/>
<path fill-rule="evenodd" clip-rule="evenodd" d="M48.9316 44.1451H36.6061L34.7099 52.8011C34.3389 54.5322 33.4732 55.2742 32.1953 55.6039L33.803 58.6953C36.3588 57.8709 38.2962 56.3459 38.997 53.3369L40.2749 47.6487H43.4903L41.7589 58.4892H46.6644L48.9316 44.1451Z" fill="white"/>
<path fill-rule="evenodd" clip-rule="evenodd" d="M79.3935 46.4534C79.2286 47.5251 79.0637 48.5968 78.8989 49.6272C77.4561 49.6272 76.0133 49.6272 74.5705 49.6272C74.7766 48.4319 74.9827 47.1953 75.1888 46C75.2713 45.3817 75.3537 44.7634 75.4362 44.1451C72.5918 44.1039 70.7368 43.7742 70.2834 46.371L68.3047 58.4068H73.1277L74.0346 52.8835H78.363L77.4973 58.4068H82.2791C82.9387 54.2849 83.5982 50.1218 84.2578 46C84.299 45.7939 84.5463 44.0627 84.4227 44.1039C81.2898 44.1451 79.8058 43.733 79.3935 46.4534Z" fill="white"/>
<path fill-rule="evenodd" clip-rule="evenodd" d="M22.508 54.6971C22.0957 55.1917 20.3232 56.0161 19.6636 56.1809L21.0652 59.1075C23.8271 58.7365 25.6821 57.0053 26.7126 55.5627C28.9387 52.4713 31.1234 47.4838 33.0609 44.1863H28.5677L24.7752 51.0698L23.25 45.7938C22.879 44.4748 21.8896 44.1039 20.1171 44.1039C19.3338 44.1039 18.4269 44.2688 17.8086 44.5573L20.8178 53.172C21.1064 53.8727 21.8896 54.5322 22.508 54.6971Z" fill="white"/>
<path fill-rule="evenodd" clip-rule="evenodd" d="M56.6388 54.6971C56.2266 55.1917 54.454 56.0161 53.7945 56.1809L55.196 59.1075C57.9579 58.7365 59.8129 57.0053 60.8435 55.5627C63.0695 52.4713 65.2543 47.4838 67.1918 44.1863H62.6985L58.906 51.0698L57.3808 45.7938C57.0098 44.4748 56.0205 44.1039 54.2479 44.1039C53.4647 44.1039 52.5578 44.2688 51.9395 44.5573L54.9487 53.172C55.196 53.8727 55.9792 54.5322 56.6388 54.6971Z" fill="white"/>
<path fill-rule="evenodd" clip-rule="evenodd" d="M14.7987 44.3512H0.576908L0.0410156 47.6075H4.74038L2.92659 58.2419H7.70839L9.56341 47.6075H14.2628L14.7987 44.3512Z" fill="white"/>
<path fill-rule="evenodd" clip-rule="evenodd" d="M19.2504 74.5646C19.8276 74.647 20.4459 74.6882 21.0642 74.6882C25.1453 74.6882 28.6079 73.328 28.6079 69.6183C28.6079 67.1452 26.7941 65.6201 23.4139 65.6201C18.0138 65.6201 14.8809 69.4535 14.8809 74.3997C14.8809 77.9857 17.1069 80.0466 21.1879 80.0466C23.4139 80.0466 25.475 79.552 27.3713 78.4803L25.846 75.4714C23.7849 76.5431 19.3329 77.8208 19.2504 74.5646ZM22.6307 68.9176C23.5788 68.9176 24.0322 69.4122 24.0322 70.113C24.0322 71.5556 22.5895 72.2975 20.8993 72.2975C20.4871 72.2975 19.9924 72.2563 19.4978 72.2563C19.9512 70.319 20.9818 68.9176 22.6307 68.9176Z" fill="white"/>
<path fill-rule="evenodd" clip-rule="evenodd" d="M46.292 65.5376H34.4199L32.6474 74.0699C32.2764 75.801 31.3283 76.4193 30.1328 76.7491L31.7817 80.0053C34.2551 79.181 36.1513 77.6971 36.7696 74.6881L38.0063 68.7114H41.1392L39.4491 79.758H44.1897L46.292 65.5376Z" fill="white"/>
<path fill-rule="evenodd" clip-rule="evenodd" d="M52.6411 74.482C53.2182 74.5645 53.8365 74.6057 54.4549 74.6057C58.5359 74.6057 61.9986 73.2455 61.9986 69.5358C61.9986 67.0627 60.1848 65.5376 56.8045 65.5376C51.4044 65.5376 48.2715 69.3709 48.2715 74.3172C48.2715 77.9032 50.4975 79.9641 54.5785 79.9641C56.8045 79.9641 58.8657 79.4695 60.7619 78.3978L59.2367 75.3064C57.3816 76.3781 53.177 78.1093 52.6411 74.482ZM56.0625 68.8351C57.0106 68.8351 57.4641 69.3297 57.4641 70.0304C57.4641 71.4731 56.0213 72.215 54.3312 72.215C53.919 72.215 53.4243 72.1738 52.9296 72.1738C53.3418 70.2777 54.3724 68.8351 56.0625 68.8351Z" fill="white"/>
<path fill-rule="evenodd" clip-rule="evenodd" d="M70.0782 67.0628C70.0782 66.1147 69.5011 65.5377 68.3881 65.5377L65.7086 65.5789L63.4414 79.7169H68.1408L70.0782 67.3925C70.0782 67.1864 70.0782 67.1452 70.0782 67.0628ZM80.0128 65.4965L74.3654 72.009L79.0647 79.4284C77.9517 79.8818 77.0036 79.9642 76.0555 79.9642C74.2417 79.9642 73.4997 79.4284 72.9638 78.5215L69.3774 72.38L75.4371 65.5377L80.0128 65.4965Z" fill="white"/>
<path fill-rule="evenodd" clip-rule="evenodd" d="M87.7207 80.0053C93.1209 80.0053 96.2538 76.543 96.2538 71.5143C96.2538 67.7634 93.9453 65.5376 89.6169 65.5376C84.1344 65.5376 80.7129 69.0412 80.7129 74.0699C80.7541 77.7795 83.3511 80.0053 87.7207 80.0053ZM88.0917 76.5842C86.6077 76.5842 85.742 75.6362 85.742 73.905C85.742 71.5967 86.855 68.8763 89.1635 68.8763C90.7712 68.8763 91.5544 69.8656 91.5544 71.5555C91.5544 73.9874 90.4002 76.5842 88.0917 76.5842Z" fill="white"/>
<path fill-rule="evenodd" clip-rule="evenodd" d="M113.816 65.5376C113.197 65.5376 112.208 65.7437 111.631 66.0734L108.003 74.6881L106.849 67.2276C106.684 65.9498 105.489 65.5376 103.799 65.5376C103.098 65.5376 102.15 65.7849 101.614 66.0734L97.9863 79.7168H101.614L103.799 71.1846L104.747 79.7168H108.209L111.796 71.267L111.26 79.7168H115.753L116.042 65.5376H113.816Z" fill="white"/>
<path fill-rule="evenodd" clip-rule="evenodd" d="M14.2215 65.4552H0.576908L0.0410156 68.7939H4.57549L2.80292 79.552H7.41984L9.1924 68.7939H13.7269L14.2215 65.4552Z" fill="white"/>
<path fill-rule="evenodd" clip-rule="evenodd" d="M82.6508 89.1971C82.8981 89.1971 83.063 89.1147 83.2279 88.9498C83.3928 88.785 83.434 88.5789 83.434 88.3728C83.434 88.1255 83.3516 87.9194 83.2279 87.7957C83.063 87.6308 82.8981 87.5484 82.6508 87.5484H81.7027V89.1971H82.6508ZM82.6508 87.0538C83.0218 87.0538 83.3516 87.1774 83.5989 87.4248C83.8463 87.6721 83.9699 88.0018 83.9699 88.3728C83.9699 88.7437 83.8463 89.0735 83.5989 89.3208C83.3516 89.5681 83.0218 89.6918 82.6508 89.6918H81.7027V91.1756H81.1668V87.0126H82.6508V87.0538ZM77.2919 90.681H79.2293V91.2169H76.756V87.0538H79.1881V87.5896H77.2919V88.8674H79.0232V89.4032H77.2919V90.681ZM71.933 90.681H73.788V87.5484H72.2628V89.2384C72.2628 89.8566 72.1391 90.3513 71.933 90.681ZM74.3651 90.681H74.8186V92H74.2827V91.2169H71.562V92H71.0261V90.681H71.3971C71.6444 90.3513 71.7681 89.8566 71.7681 89.1971V87.0126H74.4063V90.681H74.3651ZM68.594 91.2169V88.1255L66.4504 91.2169H65.9969V87.0538H66.5328V90.1864L68.6764 87.0538H69.1298V91.2169H68.594ZM66.7802 86.6004V86.147H68.3878V86.6004H66.7802ZM61.6274 89.7742H63.1114L62.3694 87.7133L61.6274 89.7742ZM63.6473 91.2169L63.3175 90.2688H61.4625L61.1327 91.2169H60.5556L62.0808 87.0538H62.6992L64.2244 91.2169H63.6473ZM57.7525 90.681C57.9173 90.681 58.0822 90.5986 58.2059 90.4749C58.3296 90.3513 58.412 90.1864 58.412 89.9803C58.412 89.8154 58.3296 89.6506 58.2059 89.4857C58.0822 89.362 57.9173 89.2796 57.7525 89.2796H56.5158V90.6398H57.7525V90.681ZM57.6288 87.5484H56.5158V88.8262H57.6288C57.7937 88.8262 57.9586 88.785 58.0822 88.6613C58.2059 88.5377 58.2471 88.3728 58.2471 88.2079C58.2471 88.043 58.2059 87.8782 58.0822 87.7545C57.9586 87.6308 57.7937 87.5484 57.6288 87.5484ZM58.3296 89.0323C58.5357 89.1147 58.6593 89.2384 58.783 89.4445C58.9067 89.6093 58.9479 89.8154 58.9479 90.0215C58.9479 90.3513 58.8242 90.6398 58.6181 90.8459C58.3708 91.052 58.0822 91.1756 57.7525 91.1756H55.9799V87.0126H57.6288C57.9586 87.0126 58.2059 87.1362 58.4532 87.3423C58.6593 87.5484 58.783 87.8369 58.783 88.1667C58.783 88.5376 58.6593 88.8262 58.3296 89.0323ZM50.7446 90.2688C51.0332 90.5986 51.4454 90.7222 51.8989 90.7222C52.3523 90.7222 52.7233 90.5574 53.0531 90.2688C53.3416 89.9391 53.5065 89.5681 53.5065 89.1147C53.5065 88.6613 53.3416 88.2491 53.0531 87.9606C52.7645 87.6308 52.3523 87.5072 51.8989 87.5072C51.4454 87.5072 51.0744 87.6721 50.7446 87.9606C50.4561 88.2903 50.2912 88.6613 50.2912 89.1147C50.2912 89.5681 50.4561 89.9803 50.7446 90.2688ZM53.3829 90.6398C52.9706 91.052 52.476 91.2581 51.8576 91.2581C51.2393 91.2581 50.7446 91.052 50.3324 90.6398C49.9202 90.2276 49.7141 89.6918 49.7141 89.1147C49.7141 88.4964 49.9202 88.0018 50.3324 87.5896C50.7446 87.1774 51.2393 86.9713 51.8576 86.9713C52.476 86.9713 52.9706 87.1774 53.3829 87.5896C53.7951 88.0018 54.0012 88.5377 54.0012 89.1147C54.0424 89.733 53.7951 90.2276 53.3829 90.6398ZM46.7048 89.1971C46.9522 89.1971 47.1171 89.1147 47.2819 88.9498C47.4468 88.785 47.4881 88.5789 47.4881 88.3728C47.4881 88.1255 47.4056 87.9194 47.2819 87.7957C47.1171 87.6308 46.9522 87.5484 46.7048 87.5484H45.7567V89.1971H46.7048ZM46.7048 87.0538C47.0758 87.0538 47.4056 87.1774 47.653 87.4248C47.9003 87.6721 48.024 88.0018 48.024 88.3728C48.024 88.7437 47.9003 89.0735 47.653 89.3208C47.4056 89.5681 47.0758 89.6918 46.7048 89.6918H45.7567V91.1756H45.2208V87.0126H46.7048V87.0538ZM42.9948 87.0538V91.2169H42.4589V87.5896H40.5627V91.2169H40.0268V87.0538H42.9948ZM36.6878 87.0538V87.5896H35.4511V91.2169H34.9152V87.5896H33.6785V87.0538H36.6878ZM30.1746 90.681H32.1121V91.2169H29.6387V87.0538H32.0709V87.5896H30.1746V88.8674H31.906V89.4032H30.1746V90.681ZM26.8768 87.0538H27.4127V91.2169H26.8768V89.362H24.8569V91.2169H24.321V87.0538H24.8569V88.8262H26.8768V87.0538ZM21.0232 89.1971C21.2706 89.1971 21.4355 89.1147 21.6004 88.9498C21.7653 88.785 21.8065 88.5789 21.8065 88.3728C21.8065 88.1255 21.724 87.9194 21.6004 87.7957C21.4355 87.6308 21.2706 87.5484 21.0232 87.5484H20.0751V89.1971H21.0232ZM21.0232 87.0538C21.3942 87.0538 21.724 87.1774 21.9714 87.4248C22.2187 87.6721 22.3424 88.0018 22.3424 88.3728C22.3424 88.7437 22.2187 89.0735 21.9714 89.3208C21.724 89.5681 21.3942 89.6918 21.0232 89.6918H20.0751V91.1756H19.5392V87.0126H21.0232V87.0538ZM15.6643 90.681H17.6018V91.2169H15.1284V87.0538H17.5606V87.5896H15.6643V88.8674H17.3957V89.4032H15.6643V90.681ZM13.2734 87.0538V87.5896H12.0368V91.2169H11.5009V87.5896H10.2642V87.0538H13.2734ZM7.87328 87.0538H8.40917V91.2169H7.87328V89.362H5.85338V91.2169H5.31749V87.0538H5.85338V88.8262H7.87328V87.0538ZM2.59681 91.2169V88.1255L0.45324 91.2169H0.0410156V87.0538H0.576908V90.1864L2.72048 87.0538H3.17392V91.2169H2.59681Z" fill="white"/>
</g>
<defs>
<clipPath id="clip0_1320_3690">
<rect width="116" height="92" fill="white"/>
</clipPath>
</defs>
</svg>
