<svg width="31" height="30" viewBox="0 0 31 30" fill="none" xmlns="http://www.w3.org/2000/svg">
<path d="M18.6177 2.42437C20.5808 2.42437 22.4999 2.99176 24.1321 4.05479C25.7644 5.11783 27.0366 6.62876 27.7879 8.39651C28.5391 10.1643 28.7357 12.1095 28.3527 13.9861C27.9697 15.8627 27.0244 17.5866 25.6362 18.9395C24.2481 20.2925 22.4795 21.2139 20.5541 21.5872C18.6287 21.9605 16.633 21.7689 14.8193 21.0367C13.0056 20.3044 11.4554 19.0645 10.3648 17.4735C9.27412 15.8826 8.69199 14.0121 8.69199 12.0987C8.69199 9.53293 9.73773 7.07222 11.5992 5.25792C13.4606 3.44363 15.9852 2.42437 18.6177 2.42437ZM18.6177 0.00238276C15.755 0.00521506 12.9812 0.972162 10.7659 2.73952C8.55064 4.50688 7.03004 6.96607 6.46152 9.70075C5.893 12.4354 6.3115 15.2776 7.64616 17.746C8.98082 20.2145 11.1496 22.1576 13.7855 23.2464C16.8166 24.4844 20.2278 24.5005 23.2711 23.2912C26.3145 22.0819 28.7418 19.7459 30.021 16.7952C31.3001 13.8445 31.3268 10.5198 30.0952 7.54992C28.8636 4.58004 26.4741 2.20726 23.4506 0.951684C21.9217 0.320763 20.2779 -0.00292019 18.6177 1.985e-05V0.00238276Z" fill="black"/>
<path d="M0.520437 27.7782L6.75212 21.7043C7.35213 21.1195 8.23882 21.0268 8.72247 21.4982C9.20612 21.9696 9.11097 22.8338 8.51095 23.4186L2.27927 29.4931C1.67926 30.0779 0.792565 30.1707 0.308916 29.6993C-0.174733 29.2279 -0.0801853 28.3636 0.520437 27.7782Z" fill="black"/>
</svg>
