<svg width="15" height="14" viewBox="0 0 15 14" fill="none" xmlns="http://www.w3.org/2000/svg">
<g clip-path="url(#clip0_600_12464)">
<path d="M14.0061 1.85693C13.7676 1.66771 13.4188 1.70526 13.2271 1.94069L5.85383 10.9969C5.75375 11.1025 5.61849 11.1637 5.47156 11.1695C5.32031 11.1755 5.17706 11.1222 5.06917 11.021L0.964922 7.13843C0.743961 6.92944 0.393222 6.9368 0.181432 7.15481C-0.0303309 7.37285 -0.0229055 7.71902 0.198028 7.92804L4.30391 11.8122C4.61589 12.1048 5.01958 12.2637 5.44731 12.2637C5.47017 12.2637 5.49317 12.2633 5.51614 12.2624C5.9692 12.2444 6.38533 12.0509 6.6878 11.7175C6.69437 11.7103 6.70074 11.7028 6.70695 11.6952L14.091 2.62578C14.2827 2.39033 14.2447 2.04612 14.0061 1.85693Z" fill="#D22730"/>
</g>
<defs>
<clipPath id="clip0_600_12464">
<rect width="14.1858" height="14" fill="white" transform="translate(0.0273438)"/>
</clipPath>
</defs>
</svg>
