<svg width="66" height="66" viewBox="0 0 66 66" fill="none" xmlns="http://www.w3.org/2000/svg">
<circle cx="33" cy="33" r="33" fill="#D22730"/>
<mask id="path-2-outside-1_1576_3770" maskUnits="userSpaceOnUse" x="9.87109" y="8.87036" width="48" height="48" fill="black">
<rect fill="white" x="9.87109" y="8.87036" width="48" height="48"/>
<path d="M56.1304 32.5C56.1304 44.998 45.9987 55.1296 33.5007 55.1296C21.0027 55.1296 10.8711 44.998 10.8711 32.5C10.8711 20.002 21.0027 9.87036 33.5007 9.87036C45.9987 9.87036 56.1304 20.002 56.1304 32.5ZM14.2655 32.5C14.2655 43.1233 22.8774 51.7352 33.5007 51.7352C44.124 51.7352 52.7359 43.1233 52.7359 32.5C52.7359 21.8767 44.124 13.2648 33.5007 13.2648C22.8774 13.2648 14.2655 21.8767 14.2655 32.5Z"/>
</mask>
<path d="M56.1304 32.5C56.1304 44.998 45.9987 55.1296 33.5007 55.1296C21.0027 55.1296 10.8711 44.998 10.8711 32.5C10.8711 20.002 21.0027 9.87036 33.5007 9.87036C45.9987 9.87036 56.1304 20.002 56.1304 32.5ZM14.2655 32.5C14.2655 43.1233 22.8774 51.7352 33.5007 51.7352C44.124 51.7352 52.7359 43.1233 52.7359 32.5C52.7359 21.8767 44.124 13.2648 33.5007 13.2648C22.8774 13.2648 14.2655 21.8767 14.2655 32.5Z" fill="white"/>
<path d="M56.1304 32.5C56.1304 44.998 45.9987 55.1296 33.5007 55.1296C21.0027 55.1296 10.8711 44.998 10.8711 32.5C10.8711 20.002 21.0027 9.87036 33.5007 9.87036C45.9987 9.87036 56.1304 20.002 56.1304 32.5ZM14.2655 32.5C14.2655 43.1233 22.8774 51.7352 33.5007 51.7352C44.124 51.7352 52.7359 43.1233 52.7359 32.5C52.7359 21.8767 44.124 13.2648 33.5007 13.2648C22.8774 13.2648 14.2655 21.8767 14.2655 32.5Z" stroke="white" stroke-width="2" mask="url(#path-2-outside-1_1576_3770)"/>
<path d="M34.2681 31.2212L34.2681 31.2212C35.9202 30.8898 37.0067 29.5627 36.9466 28.1288C36.8819 26.5927 35.4719 25.2628 33.6401 25.1995L34.2681 31.2212ZM34.2681 31.2212C32.5003 31.576 31.2059 32.9939 31.2059 34.722V37.0871C31.2059 38.3108 32.2763 39.2281 33.5006 39.2281C34.725 39.2281 35.7953 38.3108 35.7953 37.0871V35.2754M34.2681 31.2212L35.7953 35.2754M27.906 22.9711L27.906 22.971C29.4988 21.5683 31.5986 20.844 33.8087 20.9206L27.906 22.9711ZM27.906 22.9711C26.3384 24.3516 25.4629 26.2183 25.4629 28.2255C25.4629 29.4492 26.5332 30.3665 27.7576 30.3665C28.982 30.3665 30.0523 29.4492 30.0523 28.2255C30.0523 27.4228 30.4005 26.6634 31.0566 26.0857M27.906 22.9711L31.0566 26.0857M35.7953 35.2754C39.2604 34.3379 41.6756 31.3641 41.5324 27.9606C41.5324 27.9606 41.5323 27.9605 41.5323 27.9605L41.0328 27.9816L35.7953 35.2754ZM31.0566 26.0857C31.7377 25.4861 32.6511 25.1661 33.64 25.1995L31.0566 26.0857ZM31.2059 42.8307C31.2059 44.0544 32.2763 44.9717 33.5006 44.9717C34.725 44.9717 35.7953 44.0544 35.7953 42.8307C35.7953 41.6069 34.725 40.6896 33.5006 40.6896C32.2763 40.6896 31.2059 41.6069 31.2059 42.8307Z" fill="white" stroke="white"/>
</svg>
