<svg width="279" height="55" viewBox="0 0 279 55" fill="none" xmlns="http://www.w3.org/2000/svg">
<g clip-path="url(#clip0_1512_5289)">
<path fill-rule="evenodd" clip-rule="evenodd" d="M114.794 4.34961C105.734 4.34961 98.355 11.6923 98.355 20.8122C98.355 29.8853 105.687 37.2748 114.794 37.2748C117.456 37.2748 119.978 36.62 122.22 35.4976L107.555 20.8122L122.22 6.12682C119.978 4.9576 117.456 4.34961 114.794 4.34961ZM126.657 32.177L115.308 20.8122L126.657 9.4474C129.505 12.3938 131.233 16.4159 131.233 20.8122C131.233 25.2085 129.459 29.2306 126.657 32.177Z" fill="#D22730"/>
<path fill-rule="evenodd" clip-rule="evenodd" d="M65.6166 3.88184C59.2184 3.88184 53.6608 7.52979 50.9521 12.9082H80.2812C77.5257 7.52979 72.0149 3.88184 65.6166 3.88184ZM49.3175 18.3801C49.2241 19.0349 49.2241 19.6897 49.2241 20.3444C49.2241 25.7228 51.7927 30.4932 55.8092 33.4864L64.4491 18.3801H49.3175ZM60.6195 35.9652L70.7539 18.3334H81.9158C82.0092 18.9881 82.0092 19.6429 82.0092 20.2977C82.0092 29.3708 74.6769 36.7602 65.5699 36.7602C63.842 36.7602 62.1607 36.4796 60.6195 35.9652Z" fill="#D22730"/>
<path fill-rule="evenodd" clip-rule="evenodd" d="M16.4392 3.88184C10.041 3.88184 4.48343 7.52979 1.77469 12.9082H31.1038C28.3483 7.52979 22.8375 3.88184 16.4392 3.88184ZM0.0934048 18.3801C0.0467024 18.9881 0 19.6429 0 20.2977C0 25.7228 2.56863 30.4932 6.58504 33.4864L15.3184 18.3801H0.0934048ZM11.4421 35.9652L21.5765 18.3334H32.7384C32.8318 18.9881 32.8318 19.6429 32.8318 20.2977C32.8318 29.3708 25.4995 36.7602 16.3925 36.7602C14.6645 36.7602 12.9833 36.4796 11.4421 35.9652Z" fill="#D22730"/>
<path fill-rule="evenodd" clip-rule="evenodd" d="M203.669 0.0473633H189.565L187.37 9.96233C186.95 11.9734 185.922 12.7685 184.475 13.1894L186.296 16.7438C189.238 15.8084 191.433 14.0312 192.227 10.5703L193.722 4.0227H197.411L195.403 16.4632H201.007L203.669 0.0473633Z" fill="white"/>
<path fill-rule="evenodd" clip-rule="evenodd" d="M238.602 2.71293C238.415 3.92891 238.229 5.1449 237.995 6.36089C236.361 6.36089 234.679 6.36089 233.045 6.36089C233.278 4.95782 233.512 3.60153 233.745 2.19847C233.839 1.49694 233.932 0.795408 234.025 0.0938774C230.756 0.0471087 228.608 -0.327041 228.141 2.61939L225.853 16.4629H231.41L232.438 10.1024H237.388L236.361 16.4629H241.825C242.572 11.6925 243.366 6.96888 244.113 2.19847C244.16 1.96463 244.487 0.000339945 244.3 0.000339945C240.797 0.0471087 239.116 -0.420578 238.602 2.71293Z" fill="white"/>
<path fill-rule="evenodd" clip-rule="evenodd" d="M173.406 12.1605C172.939 12.7217 170.884 13.6571 170.184 13.8441L171.818 17.2115C174.994 16.7906 177.096 14.7795 178.263 13.1426C180.785 9.58818 183.307 3.8824 185.549 0.0473633H180.411L176.068 7.99804L174.293 1.96488C173.873 0.468282 172.752 0.0473633 170.697 0.0473633C169.81 0.0473633 168.783 0.234438 168.082 0.561819L171.538 10.43C171.772 11.1783 172.659 11.9734 173.406 12.1605Z" fill="white"/>
<path fill-rule="evenodd" clip-rule="evenodd" d="M212.496 12.1599C212.029 12.7211 209.974 13.6565 209.273 13.8435L210.908 17.2109C214.084 16.79 216.185 14.7789 217.353 13.142C219.921 9.58758 222.443 3.8818 224.638 0.0467687H219.501L215.158 7.95068L213.383 1.91752C212.963 0.420918 211.842 0 209.787 0C208.9 0 207.826 0.187075 207.125 0.514456L210.581 10.3827C210.908 11.1777 211.749 11.9728 212.496 12.1599Z" fill="white"/>
<path fill-rule="evenodd" clip-rule="evenodd" d="M164.579 0.28125H148.233L147.626 4.02275H153.043L150.895 16.2294H156.406L158.508 4.02275H163.972L164.579 0.28125Z" fill="white"/>
<path fill-rule="evenodd" clip-rule="evenodd" d="M169.389 34.8895C170.043 34.9831 170.743 35.0298 171.444 35.0298C176.067 35.0298 179.99 33.4865 179.99 29.2773C179.99 26.4712 177.935 24.7407 174.106 24.7407C167.988 24.7407 164.438 29.0902 164.438 34.7025C164.438 38.7713 166.96 41.1098 171.584 41.1098C174.106 41.1098 176.441 40.5485 178.543 39.3326L176.815 35.9184C174.526 37.1344 169.482 38.5843 169.389 34.8895ZM173.219 28.4354C174.293 28.4354 174.806 28.9967 174.806 29.7917C174.806 31.4286 173.172 32.2705 171.257 32.2705C170.79 32.2705 170.23 32.2237 169.669 32.2237C170.136 30.0724 171.35 28.4354 173.219 28.4354Z" fill="white"/>
<path fill-rule="evenodd" clip-rule="evenodd" d="M200.026 24.647H186.576L184.568 34.3281C184.147 36.2924 183.073 36.9939 181.719 37.3681L183.587 41.0628C186.389 40.1274 188.537 38.4437 189.238 35.0296L190.639 28.2482H194.188L192.274 40.7822H197.644L200.026 24.647Z" fill="white"/>
<path fill-rule="evenodd" clip-rule="evenodd" d="M207.218 34.7958C207.872 34.8893 208.572 34.9361 209.273 34.9361C213.896 34.9361 217.819 33.3927 217.819 29.1835C217.819 26.3774 215.765 24.647 211.935 24.647C205.817 24.647 202.268 28.9965 202.268 34.6087C202.268 38.6776 204.79 41.016 209.413 41.016C211.935 41.016 214.27 40.4548 216.418 39.2388L214.69 35.7312C212.589 36.9471 207.825 38.9114 207.218 34.7958ZM211.048 28.3885C212.122 28.3885 212.636 28.9497 212.636 29.7448C212.636 31.3817 211.001 32.2235 209.086 32.2235C208.619 32.2235 208.059 32.1767 207.498 32.1767C208.012 29.9786 209.18 28.3885 211.048 28.3885Z" fill="white"/>
<path fill-rule="evenodd" clip-rule="evenodd" d="M226.973 26.331C226.973 25.2553 226.319 24.6006 225.058 24.6006L222.023 24.6474L219.454 40.689H224.778L226.973 26.7052C226.973 26.5181 226.973 26.4713 226.973 26.331ZM238.228 24.6006L231.83 31.99L237.154 40.4084C235.893 40.9229 234.819 41.0164 233.745 41.0164C231.69 41.0164 230.849 40.4084 230.242 39.3795L226.179 32.411L233.045 24.6474L238.228 24.6006Z" fill="white"/>
<path fill-rule="evenodd" clip-rule="evenodd" d="M246.962 41.0164C253.08 41.0164 256.629 37.0878 256.629 31.382C256.629 27.1261 254.014 24.6006 249.11 24.6006C242.899 24.6006 239.022 28.5759 239.022 34.2817C239.069 38.5377 242.011 41.0164 246.962 41.0164ZM247.382 37.1814C245.701 37.1814 244.72 36.1057 244.72 34.1414C244.72 31.5224 245.981 28.4356 248.596 28.4356C250.418 28.4356 251.305 29.5581 251.305 31.4756C251.305 34.1882 249.998 37.1814 247.382 37.1814Z" fill="white"/>
<path fill-rule="evenodd" clip-rule="evenodd" d="M276.525 24.647C275.824 24.647 274.703 24.8808 274.049 25.255L269.939 35.0296L268.632 26.5645C268.445 25.1147 267.091 24.647 265.176 24.647C264.382 24.647 263.308 24.9276 262.701 25.255L258.591 40.7354H262.701L265.176 31.0543L266.25 40.7354H270.173L274.236 31.1478L273.629 40.7354H278.72L279.046 24.647H276.525Z" fill="white"/>
<path fill-rule="evenodd" clip-rule="evenodd" d="M163.692 24.5537H148.233L147.626 28.342H152.763L150.755 40.5486H155.986L157.994 28.342H163.131L163.692 24.5537Z" fill="white"/>
<path fill-rule="evenodd" clip-rule="evenodd" d="M242.385 51.7733C242.665 51.7733 242.852 51.6797 243.039 51.4927C243.226 51.3056 243.272 51.0717 243.272 50.8379C243.272 50.5573 243.179 50.3234 243.039 50.1364C242.852 49.9493 242.665 49.8558 242.385 49.8558H241.311V51.7265H242.385V51.7733ZM242.385 49.2945C242.805 49.2945 243.179 49.4348 243.459 49.7155C243.739 49.9961 243.88 50.3702 243.88 50.7911C243.88 51.2121 243.739 51.5862 243.459 51.8668C243.179 52.1474 242.805 52.2877 242.385 52.2877H241.311V54.0182H240.657V49.2478H242.385V49.2945ZM236.174 53.5037H238.369V54.1117H235.52V49.3413H238.322V49.9493H236.174V51.3991H238.182V52.0071H236.174V53.5037ZM230.056 53.5037H232.204V49.9025H230.429V51.8201C230.429 52.5683 230.336 53.0828 230.056 53.5037ZM232.811 53.5037H233.325V55.0003H232.718V54.0649H229.589V55.0003H228.981V53.5037H229.402C229.682 53.1296 229.822 52.5683 229.822 51.8201V49.3413H232.858V53.5037H232.811ZM226.226 54.1117V50.5105L223.798 54.0649H223.284V49.2945H223.938V52.849L226.366 49.2945H226.88V54.0649H226.226V54.1117ZM224.171 48.7801V48.2656H225.993V48.7801H224.171ZM218.24 52.428H219.921L219.081 50.0896L218.24 52.428ZM220.575 54.1117L220.201 53.036H218.053L217.679 54.1117H217.026L218.8 49.3413H219.501L221.276 54.1117H220.575ZM213.803 53.5037C214.037 53.5037 214.177 53.4102 214.317 53.2699C214.457 53.1296 214.55 52.9425 214.55 52.7087C214.55 52.4748 214.457 52.3345 214.317 52.1474C214.177 52.0071 213.99 51.9136 213.803 51.9136H212.402V53.457H213.803V53.5037ZM213.663 49.9025H212.402V51.3524H213.663C213.85 51.3524 214.037 51.3056 214.177 51.1185C214.317 50.9782 214.364 50.7911 214.364 50.6041C214.364 50.417 214.27 50.2299 214.177 50.0896C214.037 49.9961 213.85 49.9025 213.663 49.9025ZM214.504 51.5862C214.737 51.6797 214.877 51.8201 215.017 52.0539C215.158 52.241 215.204 52.4748 215.204 52.7554C215.204 53.1296 215.064 53.457 214.784 53.7376C214.504 54.0182 214.177 54.1117 213.803 54.1117H211.748V49.3413H213.663C214.037 49.3413 214.364 49.4816 214.597 49.7155C214.831 49.9493 214.971 50.2767 214.971 50.6508C215.017 51.025 214.831 51.3524 214.504 51.5862ZM205.77 53.036C206.097 53.4102 206.564 53.5505 207.078 53.5505C207.592 53.5505 208.012 53.3634 208.386 53.036C208.759 52.6619 208.899 52.241 208.899 51.7265C208.899 51.2121 208.713 50.7444 208.386 50.417C208.059 50.0428 207.592 49.9025 207.078 49.9025C206.564 49.9025 206.144 50.0896 205.77 50.417C205.397 50.7911 205.257 51.2121 205.257 51.7265C205.257 52.241 205.397 52.6619 205.77 53.036ZM208.806 53.457C208.339 53.9246 207.732 54.1585 207.078 54.1585C206.378 54.1585 205.817 53.9246 205.35 53.457C204.883 52.9893 204.65 52.3813 204.65 51.6797C204.65 50.9782 204.883 50.417 205.35 49.9025C205.817 49.4348 206.424 49.201 207.078 49.201C207.779 49.201 208.339 49.4348 208.806 49.9025C209.273 50.3702 209.507 50.9782 209.507 51.6797C209.507 52.3813 209.273 52.9893 208.806 53.457ZM201.147 51.7733C201.427 51.7733 201.614 51.6797 201.801 51.4927C201.988 51.3056 202.081 51.0717 202.081 50.8379C202.081 50.5573 201.988 50.3234 201.801 50.1364C201.614 49.9493 201.427 49.8558 201.147 49.8558H200.073V51.7265H201.147V51.7733ZM201.147 49.2945C201.567 49.2945 201.941 49.4348 202.221 49.7155C202.501 49.9961 202.641 50.3702 202.641 50.7911C202.641 51.2121 202.501 51.5862 202.221 51.8668C201.941 52.1474 201.567 52.2877 201.147 52.2877H200.073V54.0182H199.419V49.2478H201.147V49.2945ZM196.897 49.2945V54.0649H196.29V49.9025H194.095V54.0649H193.488V49.2945H196.897ZM189.658 49.2945V49.9025H188.257V54.0649H187.65V49.9025H186.249V49.2945H189.658ZM182.186 53.5037H184.381V54.1117H181.532V49.3413H184.334V49.9493H182.186V51.3991H184.194V52.0071H182.186V53.5037ZM178.403 49.2945H179.01V54.0649H178.403V51.9136H176.114V54.0649H175.461V49.2945H176.114V51.3056H178.403V49.2945ZM171.724 51.7733C172.005 51.7733 172.191 51.6797 172.378 51.4927C172.565 51.3056 172.658 51.0717 172.658 50.8379C172.658 50.5573 172.565 50.3234 172.378 50.1364C172.191 49.9493 172.005 49.8558 171.724 49.8558H170.65V51.7265H171.724V51.7733ZM171.724 49.2945C172.145 49.2945 172.518 49.4348 172.799 49.7155C173.079 49.9961 173.219 50.3702 173.219 50.7911C173.219 51.2121 173.079 51.5862 172.799 51.8668C172.518 52.1474 172.145 52.2877 171.724 52.2877H170.65V54.0182H169.996V49.2478H171.724V49.2945ZM165.513 53.5037H167.708V54.1117H164.859V49.3413H167.661V49.9493H165.513V51.3991H167.521V52.0071H165.513V53.5037ZM162.804 49.2945V49.9025H161.403V54.0649H160.796V49.9025H159.395V49.2945H162.804ZM156.64 49.2945H157.247V54.0649H156.64V51.9136H154.351V54.0649H153.744V49.2945H154.351V51.3056H156.64V49.2945ZM150.568 54.1117V50.5105L148.14 54.0649H147.626V49.2945H148.28V52.849L150.708 49.2945H151.222V54.0649H150.568V54.1117Z" fill="white"/>
</g>
<defs>
<clipPath id="clip0_1512_5289">
<rect width="279" height="55" fill="white"/>
</clipPath>
</defs>
</svg>
