<svg width="30" height="30" viewBox="0 0 30 30" fill="none" xmlns="http://www.w3.org/2000/svg">
<path d="M27.0939 23.8597C34.3544 14.2071 27.1496 -0.111102 15 0.000650206C2.85035 -0.111102 -4.35435 14.2071 2.90615 23.8597C2.96436 23.9847 3.04743 24.0964 3.15026 24.188C8.98097 31.9408 21.026 31.9338 26.8637 24.188C26.963 24.0964 27.0415 23.9844 27.0939 23.8597ZM15 2.096C24.8829 1.95631 31.2716 13.3131 26.0477 21.6526C20.3843 15.192 9.61566 15.192 3.95233 21.6526C-1.2716 13.3131 5.11708 1.95631 15 2.096ZM15 27.9387C13.1415 27.9334 11.3063 27.5248 9.62066 26.7411C7.93501 25.9573 6.439 24.8171 5.23564 23.3988C10.1178 17.413 19.9589 17.42 24.8341 23.3988C23.6231 24.826 22.1159 25.9716 20.4174 26.7557C18.719 27.5398 16.8702 27.9435 15 27.9387Z" fill="black"/>
<path d="M14.9999 15.3666C16.2947 15.3666 17.5365 14.8515 18.4521 13.9346C19.3677 13.0177 19.882 11.7741 19.882 10.4774C19.6519 3.98181 10.3199 3.98181 10.1177 10.4774C10.1177 11.7741 10.632 13.0177 11.5476 13.9346C12.4632 14.8515 13.705 15.3666 14.9999 15.3666ZM14.9999 7.6836C15.7444 7.6836 16.4584 7.97979 16.9849 8.50701C17.5113 9.03422 17.8071 9.74928 17.8071 10.4949C17.8071 11.2405 17.5113 11.9555 16.9849 12.4827C16.4584 13.01 15.7444 13.3061 14.9999 13.3061C14.2507 13.3061 13.5322 13.0081 13.0025 12.4776C12.4728 11.9471 12.1752 11.2276 12.1752 10.4774C12.1752 9.72718 12.4728 9.00769 13.0025 8.4772C13.5322 7.94671 14.2507 7.64868 14.9999 7.64868V7.6836Z" fill="black"/>
</svg>
